<?xml version="1.0" encoding="UTF-8" standalone="no"?>
<svg xmlns:xlink="http://www.w3.org/1999/xlink" height="56.8px" width="672.95px" xmlns="http://www.w3.org/2000/svg">
  <g transform="matrix(1.0, 0.0, 0.0, 1.0, 3.7, -1.75)">
    <path d="M667.1 13.8 Q668.7 25.85 669.2 38.0 669.65 47.95 663.95 55.9 662.75 57.55 660.9 57.55 L641.65 58.55 617.75 58.1 594.7 57.65 570.45 57.35 546.35 57.15 525.5 57.1 502.35 56.9 Q489.55 56.75 476.85 56.9 465.85 57.0 454.9 56.35 L436.55 56.25 418.25 56.3 395.8 56.45 374.4 56.6 353.95 56.75 334.5 57.0 315.95 57.2 290.05 57.5 266.35 57.75 244.55 58.05 224.65 58.3 200.9 58.4 175.8 58.4 154.8 58.4 132.75 58.25 108.55 58.05 Q97.1 57.95 85.65 58.1 L59.9 58.2 Q48.3 58.2 36.65 57.85 L11.4 57.0 Q4.7 57.1 -0.65 53.5 -1.35 52.95 -1.65 52.05 -4.4 43.9 -3.5 35.0 -3.1 30.85 -3.4 26.65 -3.95 19.35 -3.5 12.4 -3.3 8.9 -0.35 6.85 2.6 4.7 6.05 4.1 18.5 1.55 31.05 1.85 L53.85 2.25 75.85 2.45 100.25 2.4 123.85 2.3 149.7 2.2 Q160.85 2.2 171.8 2.35 L193.1 2.6 217.7 2.9 234.4 2.85 257.25 2.45 Q270.2 2.15 283.0 2.45 295.55 2.7 308.05 2.6 L324.3 2.2 Q336.4 1.65 348.5 3.35 L354.55 3.6 375.35 3.6 397.3 3.3 419.25 2.65 444.25 1.8 Q456.15 1.65 468.0 1.85 L490.85 2.35 514.55 3.35 537.55 4.0 Q548.7 4.25 559.8 4.15 L584.25 3.8 609.2 3.2 621.35 2.6 Q633.4 2.25 645.4 2.7 654.15 2.95 662.85 4.85 L663.95 5.05 667.1 13.8" fill="#b980e9" fill-rule="evenodd" stroke="none"/>
  </g>
</svg>
