<?xml version="1.0" encoding="UTF-8" standalone="no"?>
<svg xmlns:xlink="http://www.w3.org/1999/xlink" height="28.35px" width="35.2px" xmlns="http://www.w3.org/2000/svg">
  <g transform="matrix(1.0, 0.0, 0.0, 1.0, 0.8, -0.15)">
  <path d="M33.4 7.4 Q33.6 9.1 26.25 16.75 18.75 24.55 16.3 24.5 13.9 24.45 6.55 16.7 -0.55 9.2 -0.8 7.4 -1.0 5.85 1.85 3.0 4.7 0.15 6.45 0.15 7.65 0.15 11.45 5.1 15.3 10.05 16.3 10.0 17.4 10.0 21.35 5.05 25.3 0.15 26.15 0.15 27.45 0.15 30.35 3.0 33.2 5.85 33.4 7.4" fill="#A35FDE" fill-rule="evenodd" stroke="none" transform="translate(1,4)" />
    <path d="M33.4 7.4 Q33.6 9.1 26.25 16.75 18.75 24.55 16.3 24.5 13.9 24.45 6.55 16.7 -0.55 9.2 -0.8 7.4 -1.0 5.85 1.85 3.0 4.7 0.15 6.45 0.15 7.65 0.15 11.45 5.1 15.3 10.05 16.3 10.0 17.4 10.0 21.35 5.05 25.3 0.15 26.15 0.15 27.45 0.15 30.35 3.0 33.2 5.85 33.4 7.4" fill="#3F1C41" fill-rule="evenodd" stroke="none"/>
  </g>
</svg>
