<?xml version="1.0" encoding="UTF-8" standalone="no"?>
<svg xmlns:xlink="http://www.w3.org/1999/xlink" height="65.1px" width="673.8px" xmlns="http://www.w3.org/2000/svg">
  <g transform="matrix(1.0, 0.0, 0.0, 1.0, 3.9, 2.35)">
    <path d="M70.05 2.5 L90.45 2.8 184.0 3.9 Q236.05 4.2 277.65 3.45 L306.85 2.15 318.95 0.9 331.1 -0.15 Q338.8 -0.6 348.6 -0.35 L366.1 0.4 405.65 2.65 433.0 3.65 Q448.9 3.7 478.8 0.8 509.95 -2.15 524.6 -2.35 531.6 -2.45 545.45 -2.05 L590.45 -0.85 Q605.75 -0.4 615.15 -0.5 L637.25 -1.2 659.3 -0.15 Q664.8 0.55 667.1 2.85 669.3 5.05 669.65 9.2 669.85 11.6 669.35 16.6 668.25 27.3 669.35 37.95 670.0 44.05 669.9 46.45 669.65 51.2 667.45 54.15 665.05 57.4 660.15 58.5 L651.1 59.15 Q610.85 58.25 559.95 57.95 532.2 57.75 468.8 57.65 L423.35 57.65 401.15 57.75 378.85 58.2 355.55 58.7 Q316.05 59.4 256.2 58.15 240.1 57.85 233.0 58.25 L222.4 59.2 211.85 60.3 189.5 61.15 109.5 62.6 94.15 62.7 78.85 61.5 68.65 59.7 58.35 58.35 47.45 58.65 36.65 60.15 28.1 61.15 20.35 60.45 12.6 60.15 7.95 60.85 Q5.25 61.1 3.5 60.2 1.95 59.4 0.95 57.6 0.1 56.0 -0.2 54.0 L-0.4 50.2 -0.35 46.35 Q-0.4 42.4 -1.5 36.5 L-3.4 26.7 Q-5.25 14.35 -0.15 7.55 5.0 0.75 17.3 -0.2 23.8 -0.75 32.9 0.1 L48.45 1.7 70.05 2.5" fill="#b980e9" fill-rule="evenodd" stroke="none"/>
  </g>
</svg>
