<?xml version="1.0" encoding="UTF-8" standalone="no"?>
<svg xmlns:xlink="http://www.w3.org/1999/xlink" height="62.6px" width="672.95px" xmlns="http://www.w3.org/2000/svg">
  <g transform="matrix(1.0, 0.0, 0.0, 1.0, 3.45, 2.9)">
    <path d="M-1.5 46.5 L-3.0 32.8 Q-3.6 25.2 -3.4 19.1 -3.0 6.25 3.45 1.95 6.1 0.2 11.2 -0.35 L20.55 -0.65 23.3 -0.2 29.45 -0.8 37.05 -0.3 Q75.55 3.35 123.75 4.2 153.25 4.75 210.7 4.3 L247.35 4.05 Q338.85 3.35 384.6 2.55 460.8 1.25 521.7 -1.5 L550.8 -2.7 Q567.1 -3.15 579.85 -2.65 L603.05 -1.05 626.25 1.35 Q645.25 3.4 655.55 3.45 L661.9 4.0 Q665.35 4.8 667.05 7.1 668.35 8.9 668.6 11.75 L668.55 16.85 Q667.95 28.4 669.15 39.0 669.65 43.9 669.45 46.4 669.15 50.5 667.0 52.85 665.25 54.8 662.05 55.65 L656.15 56.55 643.4 58.4 Q636.1 59.3 631.0 58.15 611.6 58.7 589.75 58.25 L520.8 55.35 500.8 54.4 Q489.65 54.05 480.7 54.4 L458.5 55.95 429.7 57.35 400.9 57.85 383.55 57.95 366.1 57.3 346.65 55.3 327.25 54.5 315.15 55.55 303.1 56.7 Q297.95 57.0 290.3 56.85 L277.45 56.5 Q267.25 56.35 251.5 57.2 L225.6 58.55 Q203.95 59.3 150.35 56.9 102.4 54.8 75.2 56.9 L71.75 57.05 69.7 56.9 68.45 56.95 56.1 57.05 38.45 58.55 20.75 59.7 Q11.3 59.5 5.4 56.9 1.65 55.25 0.15 52.8 -0.9 50.9 -1.5 46.5" fill="#b980e9" fill-rule="evenodd" stroke="none"/>
  </g>
</svg>
