<?xml version="1.0" encoding="UTF-8" standalone="no"?>
<svg xmlns:xlink="http://www.w3.org/1999/xlink" height="59.35px" width="669.35px" xmlns="http://www.w3.org/2000/svg">
  <g transform="matrix(1.0, 0.0, 0.0, 1.0, 0.45, -1.2)">
    <path d="M186.7 57.75 Q184.4 58.65 181.3 59.05 L175.65 59.45 Q160.4 60.15 152.7 60.0 L141.25 59.55 Q134.15 59.2 129.75 59.3 L119.15 59.9 108.55 60.35 97.8 60.0 87.05 59.15 Q71.7 58.15 49.65 58.65 L12.3 59.75 7.05 59.5 Q4.2 58.95 2.45 57.35 0.2 55.25 -0.3 51.25 -0.6 48.75 -0.2 44.0 1.05 28.95 0.15 14.45 -0.05 10.35 0.3 8.15 0.8 4.7 2.8 2.95 5.0 1.0 8.85 1.25 L15.55 2.45 Q22.3 3.95 32.15 3.35 L48.95 1.95 Q56.5 1.55 66.8 2.1 L84.65 3.35 109.45 4.5 134.2 5.1 163.35 5.65 211.7 5.45 Q349.85 3.8 487.8 2.75 L527.7 2.45 656.55 1.5 661.1 1.75 Q663.55 2.15 665.15 3.3 667.1 4.75 668.05 7.35 668.95 9.7 668.9 12.45 L668.45 17.6 667.6 22.7 Q667.15 27.0 667.8 35.15 668.55 43.65 668.25 47.55 667.5 55.9 662.9 58.85 661.05 60.05 658.45 60.35 L653.55 60.5 616.6 57.1 615.85 57.05 608.65 57.45 586.05 58.3 564.9 57.4 532.15 56.25 Q515.0 55.9 445.35 57.0 401.45 57.65 371.2 56.1 343.3 57.4 326.4 57.05 L307.35 56.4 288.25 55.5 Q268.4 54.7 243.5 54.65 228.6 54.6 198.7 54.9 193.9 54.9 191.4 55.7 L189.05 56.7 186.7 57.75" fill="#b980e9" fill-rule="evenodd" stroke="none"/>
  </g>
</svg>
