<?xml version="1.0" encoding="UTF-8" standalone="no"?>
<svg xmlns:xlink="http://www.w3.org/1999/xlink" height="84.45px" width="109.55px" xmlns="http://www.w3.org/2000/svg">
  <g transform="matrix(1.0, 0.0, 0.0, 1.0, 56.05, 41.5)">
    <path d="M39.2 -39.3 L40.75 -39.3 46.2 -38.35 46.5 -38.2 Q48.2 -37.8 49.25 -35.55 49.9 -33.9 50.2 -31.95 L50.4 -27.4 50.4 -26.7 50.2 -22.25 48.3 6.05 48.6 20.65 48.8 32.15 Q49.45 36.75 47.95 38.95 L46.85 40.3 Q45.35 41.4 43.45 41.55 L42.75 41.4 37.9 42.65 Q31.6 43.35 21.65 42.5 L5.35 41.4 -9.35 41.95 Q-18.5 42.35 -24.25 41.8 L-28.45 41.25 -28.45 41.4 -32.9 41.65 -43.7 41.25 -45.25 41.1 Q-48.6 41.0 -50.3 39.85 L-51.1 39.35 -51.5 39.1 -52.75 37.8 Q-53.9 36.2 -53.7 34.05 L-53.55 33.35 Q-54.2 32.4 -54.2 30.85 -55.55 24.5 -55.9 11.7 L-56.05 3.25 -55.9 -2.55 Q-55.75 -7.4 -55.25 -12.15 L-55.25 -16.7 -55.55 -26.15 Q-55.75 -31.55 -54.95 -34.05 -54.15 -36.6 -52.75 -38.0 -51.4 -39.45 -41.95 -40.9 -21.15 -39.05 -9.55 -40.2 L4.7 -39.3 Q10.8 -38.75 22.15 -39.05 34.15 -39.6 39.2 -39.3 M-5.75 -31.15 L-12.85 -31.7 -25.5 -32.3 -39.5 -33.1 -42.75 -33.1 -46.35 -31.5 Q-47.35 -30.9 -47.4 -27.25 -48.7 -12.35 -48.1 3.9 L-48.1 24.4 -47.1 32.2 Q-47.45 33.8 -43.65 33.15 -39.9 32.5 -37.95 33.5 L-36.65 33.5 -34.7 33.8 -19.25 33.45 Q-8.25 33.0 -2.95 33.8 L5.6 34.4 19.55 33.8 35.25 34.65 Q43.15 37.65 40.3 20.35 L41.65 -8.55 Q42.85 -19.25 42.55 -30.2 42.25 -31.65 39.15 -31.8 L39.2 -31.85 39.05 -31.8 37.0 -31.8 35.9 -31.95 34.15 -31.75 Q15.75 -31.95 6.15 -31.45 -3.9 -30.9 -5.75 -31.15 M22.3 35.35 L22.3 35.3 19.8 35.35 22.3 35.35" fill="#a35fde" fill-rule="evenodd" stroke="none"/>
    <path d="M-2.65 -31.75 L-9.75 -32.3 -22.4 -32.9 -36.4 -33.7 -39.65 -33.7 Q-42.3 -32.7 -43.25 -32.1 -44.25 -31.5 -44.3 -27.85 -45.6 -12.95 -45.0 3.3 L-45.0 23.8 -44.0 31.6 Q-44.35 33.2 -40.55 32.55 -36.8 31.9 -34.85 32.9 L-33.55 32.9 -31.6 33.2 -16.15 32.85 Q-5.15 32.4 0.15 33.2 L8.7 33.8 22.65 33.2 38.35 34.05 Q46.25 37.05 43.4 19.75 L44.75 -9.15 Q45.95 -19.85 45.65 -30.8 45.35 -32.25 42.25 -32.4 L42.3 -32.45 42.15 -32.4 40.1 -32.4 39.0 -32.55 37.25 -32.35 Q18.85 -32.55 9.25 -32.05 -0.8 -31.5 -2.65 -31.75 M42.3 -39.9 L43.85 -39.9 Q46.9 -39.75 49.3 -38.95 L49.6 -38.8 Q51.3 -38.4 52.35 -36.15 53.0 -34.5 53.3 -32.55 L53.5 -28.0 53.5 -27.3 53.3 -22.85 51.4 5.45 51.7 20.05 51.9 31.55 Q52.55 36.15 51.05 38.35 L49.95 39.7 Q48.45 40.8 46.55 40.95 L45.85 40.8 Q43.85 41.5 41.0 42.05 34.7 42.75 24.75 41.9 L8.45 40.8 -6.25 41.35 Q-15.4 41.75 -21.15 41.2 L-25.35 40.65 -25.35 40.8 -29.8 41.05 -40.6 40.65 -42.15 40.5 Q-45.5 40.4 -47.2 39.25 L-48.0 38.75 -48.4 38.5 -49.65 37.2 Q-50.8 35.6 -50.6 33.45 L-50.45 32.75 Q-51.1 31.8 -51.1 30.25 -52.45 23.9 -52.8 11.1 L-52.95 2.65 -52.8 -3.15 Q-52.65 -8.0 -52.15 -12.75 L-52.15 -17.3 -52.45 -26.75 Q-52.65 -32.15 -51.85 -34.65 -51.05 -37.2 -49.65 -38.6 -48.3 -40.05 -38.85 -41.5 -18.05 -39.65 -6.45 -40.8 L7.8 -39.9 Q13.9 -39.35 25.25 -39.65 37.25 -40.2 42.3 -39.9 M25.4 34.75 L25.4 34.7 22.9 34.75 25.4 34.75" fill="#3f1c41" fill-rule="evenodd" stroke="none"/>
  </g>
</svg>
