<?xml version="1.0" encoding="UTF-8" standalone="no"?>
<svg xmlns:xlink="http://www.w3.org/1999/xlink" height="16.15px" width="31.4px" xmlns="http://www.w3.org/2000/svg">
  <g transform="matrix(1.0, 0.0, 0.0, 1.0, 15.7, 8.05)">
    <path d="M5.5 -3.0 L5.8 -3.05 5.9 -3.1 5.9 -3.15 5.95 -6.15 5.95 -6.25 5.85 -6.3 5.55 -6.35 5.45 -6.35 5.45 -6.45 5.45 -7.45 5.5 -7.55 5.6 -7.55 8.7 -6.9 8.75 -6.85 8.8 -6.75 8.75 -5.95 8.7 -5.85 8.6 -5.85 8.4 -5.9 8.3 -5.85 8.25 -5.75 8.15 -3.3 8.2 -3.2 8.3 -3.15 8.55 -3.15 8.65 -3.1 8.7 -3.0 8.7 -2.35 8.65 -2.25 8.55 -2.2 5.5 -1.85 5.4 -1.9 5.35 -1.95 5.35 -2.9 5.4 -2.95 5.5 -3.0 M-1.8 -0.95 L-1.5 -1.1 -1.45 -1.25 -1.45 -6.05 -1.5 -6.15 -1.6 -6.15 -1.75 -6.15 -1.85 -6.15 -1.9 -6.3 -1.9 -7.9 -1.9 -7.95 -1.8 -8.0 1.35 -8.05 2.85 -7.9 Q3.7 -7.75 4.15 -7.25 L4.5 -6.65 4.6 -6.05 4.4 -5.1 3.8 -4.35 3.75 -4.3 3.75 -4.25 4.45 -2.95 4.6 -2.85 4.75 -2.9 4.9 -2.85 4.95 -2.75 4.9 -1.8 4.9 -1.75 4.8 -1.7 2.9 -1.1 2.8 -1.1 2.75 -1.15 2.1 -2.25 1.6 -3.4 1.55 -3.45 1.45 -3.45 0.95 -3.35 0.85 -3.3 0.85 -3.25 0.85 -2.1 0.9 -2.0 1.0 -1.95 1.1 -2.0 1.25 -1.95 1.25 -1.85 1.25 -0.55 1.15 -0.45 -1.7 0.9 -1.85 0.85 -1.9 0.75 -1.9 -0.85 -1.9 -0.95 -1.8 -0.95 M1.5 -5.05 Q1.85 -5.1 2.05 -5.3 L2.2 -5.9 2.05 -6.4 1.5 -6.6 0.95 -6.55 0.9 -6.5 0.85 -6.45 0.85 -5.1 0.9 -5.05 1.0 -4.95 1.5 -5.05 M9.5 -3.05 L9.75 -3.05 9.9 -3.05 9.95 -3.15 9.95 -5.4 9.95 -5.5 9.9 -5.5 9.55 -5.65 9.45 -5.65 9.45 -5.75 9.45 -6.5 9.5 -6.6 9.65 -6.65 13.25 -5.3 Q15.6 -4.15 15.7 -2.75 15.7 -2.05 14.75 -2.2 L13.45 -2.55 12.35 -3.0 12.2 -3.0 12.15 -2.9 12.15 -2.65 12.15 -2.55 12.25 -2.5 12.65 -2.35 12.7 -2.25 12.7 -1.75 12.65 -1.65 12.5 -1.6 9.45 -2.15 9.35 -2.25 9.35 -2.3 9.35 -2.9 9.4 -3.05 9.5 -3.05 M12.75 -3.8 Q13.45 -3.55 13.45 -3.9 L13.3 -4.3 12.7 -4.65 12.35 -4.75 12.25 -4.75 12.15 -4.65 12.15 -4.15 12.2 -4.05 12.25 -4.0 12.75 -3.8 M-10.2 -2.05 L-11.0 -1.85 -11.1 -1.85 -11.15 -1.95 -11.2 -3.7 -11.25 -3.8 -11.35 -3.85 -11.75 -3.7 -11.85 -3.65 -11.85 -3.55 -11.75 2.35 -11.7 2.5 -11.6 2.5 -11.45 2.45 -11.3 2.5 -11.25 2.6 -11.25 4.7 -11.25 4.75 -11.35 4.85 -14.3 5.35 -14.45 5.3 -14.45 5.2 -14.5 3.25 -14.45 3.15 -14.35 3.1 -14.1 3.1 -14.0 3.05 -13.95 2.95 -14.05 -2.7 -14.1 -2.8 -14.2 -2.85 -14.55 -2.7 -14.65 -2.55 -14.65 -0.75 -14.7 -0.7 -14.75 -0.65 -15.5 -0.4 -15.65 -0.45 -15.7 -0.55 -15.7 -4.05 -15.65 -4.15 Q-13.05 -5.5 -10.35 -6.4 L-10.2 -6.35 -10.15 -6.3 -10.1 -2.2 -10.1 -2.1 -10.2 -2.05 M-9.25 1.8 L-9.0 1.7 -8.95 1.7 -8.9 1.6 -9.0 -4.4 -9.05 -4.5 -9.15 -4.5 -9.25 -4.5 -9.4 -4.5 -9.45 -4.65 -9.5 -6.55 -9.45 -6.65 -9.35 -6.7 -6.55 -7.4 -6.45 -7.35 -6.4 -7.25 -6.4 -5.35 -6.45 -5.3 -6.5 -5.25 -6.65 -5.2 -6.7 -5.15 -6.75 -5.05 -6.75 -3.65 -6.7 -3.5 -6.55 -3.5 -5.5 -3.75 -5.45 -3.85 -5.4 -3.9 -5.4 -5.3 -5.45 -5.45 -5.55 -5.45 -5.65 -5.45 -5.7 -5.45 -5.75 -5.55 -5.8 -7.45 -5.75 -7.5 -5.7 -7.55 -2.85 -7.95 -2.75 -7.9 -2.7 -7.8 -2.7 -6.1 -2.7 -6.05 -2.8 -6.0 -3.05 -5.95 -3.1 -5.9 -3.15 -5.85 -3.1 -0.7 -3.05 -0.55 -2.9 -0.55 -2.85 -0.6 -2.7 -0.55 -2.65 -0.45 -2.65 1.25 -2.7 1.35 -5.5 2.7 -5.65 2.65 -5.7 2.55 -5.7 0.65 -5.65 0.5 -5.45 0.45 -5.35 0.3 -5.35 -1.25 -5.45 -1.35 -5.55 -1.35 -6.6 -1.05 -6.7 -0.95 -6.7 -0.9 -6.7 0.7 -6.65 0.8 -6.5 0.85 -6.35 0.85 -6.3 0.95 -6.3 2.95 -6.35 3.1 -9.15 4.15 -9.25 4.15 -9.3 4.05 -9.35 1.95 -9.3 1.85 -9.25 1.8" fill="#7e00d9" fill-rule="evenodd" stroke="none"/>
    <path d="M3.3 5.3 L4.35 5.2 4.45 5.25 4.5 5.3 4.75 5.95 5.35 6.3 5.7 6.15 5.85 5.7 5.8 5.5 5.7 5.25 Q5.4 4.9 4.7 4.45 L3.65 3.65 3.25 2.85 3.15 1.95 Q3.15 1.0 3.65 0.1 4.15 -0.95 5.0 -1.2 L5.55 -1.25 6.05 -1.0 6.2 -0.95 6.3 -1.1 6.3 -1.25 6.3 -1.35 6.4 -1.4 7.45 -1.55 7.55 -1.5 7.6 -1.4 7.55 1.1 7.55 1.15 7.45 1.2 6.35 1.3 6.3 1.3 6.25 1.25 5.9 0.5 5.45 0.35 5.1 0.6 5.0 1.05 5.05 1.25 5.1 1.4 5.1 1.45 5.7 1.9 6.25 2.3 7.3 3.25 7.3 3.3 Q7.75 4.15 7.75 5.35 7.75 6.35 7.3 7.15 6.75 8.1 5.85 8.1 L5.25 7.95 4.7 7.65 4.55 7.65 4.5 7.75 4.5 7.85 4.45 7.95 4.35 8.0 3.3 8.0 3.25 7.95 3.2 7.85 3.15 5.45 3.25 5.3 3.3 5.3 M8.65 5.85 L8.8 5.85 8.9 5.8 8.9 5.7 8.95 0.85 8.9 0.75 8.85 0.7 8.65 0.7 8.55 0.65 8.5 0.55 8.55 -1.5 8.6 -1.55 8.7 -1.65 11.5 -1.35 11.55 -1.3 11.55 -1.25 11.55 0.75 11.5 0.85 11.4 0.85 11.35 0.85 11.25 0.9 11.2 1.0 11.15 2.25 11.2 2.3 11.3 2.35 12.35 2.5 12.45 2.5 12.5 2.4 12.5 1.15 12.5 1.1 12.4 1.05 12.25 1.05 12.15 0.95 12.15 0.9 12.15 -1.0 12.25 -1.1 12.35 -1.15 15.1 -0.05 15.15 0.1 15.15 1.7 15.1 1.8 14.95 1.8 14.9 1.75 14.75 1.8 14.7 1.9 14.7 6.2 14.75 6.3 14.85 6.3 15.05 6.35 15.1 6.4 15.15 6.5 15.15 7.9 15.1 8.0 15.05 8.05 12.25 8.0 12.15 7.95 12.1 7.9 12.1 6.15 12.15 6.1 12.25 6.05 12.35 6.05 12.45 6.0 12.5 5.9 12.5 4.65 12.45 4.55 12.35 4.5 11.3 4.4 11.2 4.45 11.15 4.55 11.15 5.85 11.2 5.9 11.3 5.95 11.4 5.95 11.5 6.0 11.5 6.1 11.5 7.85 11.5 7.95 11.35 8.0 8.6 8.0 8.5 7.95 8.5 7.85 8.5 5.95 8.5 5.9 8.65 5.85 M-0.3 4.55 L-0.6 3.5 -0.9 3.5 -1.25 4.7 -1.2 4.85 -1.05 4.85 -0.4 4.7 -0.3 4.65 -0.3 4.55 M-3.45 6.5 L-3.2 6.5 -3.1 6.45 -2.15 3.7 -2.15 3.55 -2.3 3.5 -2.35 3.55 -2.45 3.5 -2.5 3.4 -2.5 2.1 -2.45 1.95 1.45 0.15 1.6 0.15 1.65 0.3 1.65 1.95 1.65 2.05 1.55 2.1 1.3 2.2 1.25 2.25 1.2 2.35 2.25 5.9 2.3 6.0 2.4 6.05 2.55 6.0 2.65 6.05 2.7 6.15 2.7 7.85 2.7 7.95 2.55 8.0 -0.15 8.0 -0.25 7.95 -0.3 7.85 -0.3 6.5 -0.3 6.4 -0.15 6.35 0.05 6.35 0.15 6.3 0.15 6.15 0.0 5.6 -0.05 5.5 -0.15 5.5 -1.45 5.7 -1.55 5.75 -1.7 6.3 -1.65 6.45 -1.55 6.5 -1.45 6.45 -1.3 6.5 -1.3 6.6 -1.25 7.85 -1.3 7.95 -1.4 8.0 -3.4 8.0 -3.5 7.95 -3.55 7.9 -3.55 6.65 -3.5 6.55 -3.45 6.5 M-9.15 7.0 L-8.9 6.95 -8.8 6.95 -8.75 6.85 -8.75 5.95 -8.8 5.85 -8.9 5.85 -9.1 5.85 -9.25 5.85 -9.25 5.75 -9.3 5.05 -9.25 4.95 -9.15 4.9 -6.15 3.75 -6.05 3.75 -6.0 3.85 -6.0 4.8 -6.05 4.9 -6.1 4.9 -6.45 5.05 -6.5 5.1 -6.55 5.15 -6.5 6.65 -6.5 6.75 -6.35 6.8 -5.3 6.7 -5.2 6.65 -5.15 6.55 -5.15 6.15 -5.15 6.05 -5.05 6.0 -3.95 5.8 -3.85 5.85 -3.8 5.95 -3.75 7.9 -3.85 7.95 -3.9 8.0 -9.1 8.05 -9.25 8.0 -9.25 7.9 -9.25 7.15 -9.25 7.05 -9.15 7.0" fill="#bd00f8" fill-rule="evenodd" stroke="none"/>
  </g>
</svg>
